<svg xmlns="http://www.w3.org/2000/svg" width="24" height="24" viewBox="0 0 24 24"><path d="M7.557 22c9.056 0 14.004-7.304 14.004-13.644 0-.204 0-.419-.01-.623.95-.682 1.79-1.52 2.449-2.483-.88.38-1.83.642-2.829.76a4.831 4.831 0 0 0 2.17-2.65c-.95.546-2 .945-3.13 1.169A4.944 4.944 0 0 0 16.624 3c-2.719 0-4.918 2.152-4.918 4.791 0 .38.04.74.13 1.091C7.737 8.687 4.108 6.78 1.68 3.876c-.42.711-.67 1.53-.67 2.416 0 1.665.87 3.135 2.19 3.992-.8-.029-1.56-.243-2.23-.603v.058c0 2.328 1.7 4.266 3.949 4.704a5.155 5.155 0 0 1-2.23.078c.63 1.909 2.44 3.291 4.599 3.33a10.066 10.066 0 0 1-6.117 2.055c-.4 0-.79-.02-1.17-.068A14.252 14.252 0 0 0 7.557 22Z"/></svg>